<svg preserveAspectRatio="none" width="100%" height="100%" overflow="visible" style="display: block;" viewBox="0 0 14 14" fill="none" xmlns="http://www.w3.org/2000/svg">
<g id="cart-filled">
<path id="Union" d="M0 0.583333H2.77888L3.09706 1.75H13.6427L11.5038 8.16667H4.53879L4.24712 9.33333H12.8333V10.5H2.75288L3.48044 7.58975L1.88779 1.75H0V0.583333ZM2.33333 12.25C2.33333 11.6057 2.85567 11.0833 3.5 11.0833C4.14433 11.0833 4.66667 11.6057 4.66667 12.25C4.66667 12.8943 4.14433 13.4167 3.5 13.4167C2.85567 13.4167 2.33333 12.8943 2.33333 12.25ZM10.5 12.25C10.5 11.6057 11.0223 11.0833 11.6667 11.0833C12.311 11.0833 12.8333 11.6057 12.8333 12.25C12.8333 12.8943 12.311 13.4167 11.6667 13.4167C11.0223 13.4167 10.5 12.8943 10.5 12.25Z" fill="var(--fill-0, white)"/>
</g>
</svg>
